<svg width="118" height="136" viewBox="0 0 118 136" fill="none" xmlns="http://www.w3.org/2000/svg">
<path d="M37.3255 14.536C28.3869 17.0392 26.9983 17.5097 24.6787 18.8C17.971 22.5448 13.5897 30.0528 13.1024 38.6223C12.9108 42.1652 13.3925 45.3212 14.6597 48.729C17.746 56.9803 23.1822 63.6871 31.6016 69.634C34.223 71.4888 35.9041 72.5137 42.1151 76.0918C45.6057 78.1071 49.0554 80.1531 49.7757 80.6388C53.5424 83.1703 55.071 85.1311 55.1577 87.5471C55.2063 88.793 54.6722 89.9196 53.6201 90.8015C52.3998 91.8268 53.7181 91.4244 37.4002 95.8263C29.3088 98.0042 22.6882 99.7979 22.6931 99.8162C22.6711 99.8811 30.8804 131.289 30.9178 131.319C31.025 131.388 75.6285 119.457 78.85 118.485C83.4382 117.108 85.6427 116.232 88.6681 114.566C95.7238 110.689 100.408 105.303 102.391 98.7912C102.75 97.633 103.243 95.0712 103.358 93.7719C103.792 89.0426 102.89 83.2551 100.953 78.2269C98.0204 70.623 92.8705 64.9115 84.665 60.1663C82.3238 58.8068 80.5504 57.9148 76.623 56.105C69.6488 52.9085 67.4448 51.6205 66.1669 50.0449C65.649 49.3968 64.9389 48.1413 64.535 47.148C63.4627 44.5043 64.1975 42.2911 66.438 41.3662C66.7127 41.2533 71.0074 40.1025 75.9885 38.7973C80.9721 37.5013 87.9079 35.6724 91.4066 34.7447L97.7594 33.0523L93.3937 16.8329L89.0213 0.625093L66.3525 6.68936C53.8905 10.0285 40.8212 13.56 37.3255 14.536Z" fill="url(#paint0_linear_1066_95481)"/>
<path d="M35.325 18.5357C26.3865 21.039 24.9978 21.5094 22.6782 22.7998C15.9705 26.5445 11.5892 34.0526 11.1019 42.622C10.9103 46.165 11.392 49.321 12.6592 52.7288C15.7455 60.98 21.1818 67.6869 29.6011 73.6337C32.2226 75.4886 33.9037 76.5134 40.1146 80.0916C43.6052 82.1069 47.0549 84.1529 47.7752 84.6385C51.5419 87.1701 53.0705 89.1308 53.1572 91.5468C53.2058 92.7927 52.6717 93.9194 51.6196 94.8013C50.3993 95.8266 51.7176 95.4242 35.3997 99.826C27.3083 102.004 20.6877 103.798 20.6926 103.816C20.6706 103.881 28.8799 135.289 28.9173 135.319C29.0245 135.388 73.628 123.456 76.8495 122.485C81.4377 121.108 83.6422 120.232 86.6676 118.566C93.7234 114.688 98.4077 109.302 100.391 102.791C100.749 101.633 101.243 99.071 101.357 97.7716C101.791 93.0424 100.89 87.2548 98.9524 82.2267C96.0199 74.6227 90.87 68.9112 82.6645 64.166C80.3233 62.8066 78.5499 61.9146 74.6225 60.1048C67.6483 56.9082 65.4443 55.6202 64.1664 54.0447C63.6485 53.3966 62.9384 52.1411 62.5345 51.1477C61.4622 48.504 62.197 46.2909 64.4376 45.3659C64.7122 45.253 69.0069 44.1023 73.988 42.7971C78.9716 41.5011 85.9074 39.6721 89.4062 38.7445L95.7589 37.0521L91.3932 20.8327L87.0208 4.62485L64.352 10.6891C51.8901 14.0283 38.8207 17.5597 35.325 18.5357Z" fill="url(#paint1_linear_1066_95481)"/>
<defs>
<linearGradient id="paint0_linear_1066_95481" x1="74.4025" y1="119.75" x2="45.5981" y2="12.2505" gradientUnits="userSpaceOnUse">
<stop stop-color="#4E4E4E"/>
<stop offset="1" stop-color="#18181B"/>
</linearGradient>
<linearGradient id="paint1_linear_1066_95481" x1="14.5331" y1="81.6468" x2="101.466" y2="58.3531" gradientUnits="userSpaceOnUse">
<stop stop-color="#D5D4D0"/>
<stop offset="0.01" stop-color="#D5D4D0"/>
<stop offset="0.31" stop-color="#EEEEEC"/>
</linearGradient>
</defs>
</svg>
