<svg width="118" height="132" viewBox="0 0 118 132" fill="none" xmlns="http://www.w3.org/2000/svg">
<path d="M36.8196 15.2197C27.659 17.7782 26.2346 18.2544 23.8471 19.5367C16.943 23.2575 12.3525 30.5728 11.7183 38.8501C11.4662 42.2721 11.9073 45.3099 13.1458 48.5782C16.163 56.4912 21.6028 62.8764 30.0985 68.4806C32.7437 70.2286 34.4426 71.1907 40.7229 74.5443C44.2524 76.4333 47.7396 78.3526 48.4668 78.8097C52.2697 81.1924 53.7981 83.0601 53.848 85.3901C53.8777 86.5917 53.3147 87.6874 52.227 88.5553C50.9655 89.5642 52.3171 89.1548 35.5965 93.6634C27.3056 95.8944 20.5215 97.7311 20.5262 97.7487C20.5028 97.8117 28.3772 127.989 28.4149 128.017C28.5231 128.083 74.2256 115.856 77.5283 114.867C82.2318 113.465 84.4952 112.584 87.6089 110.928C94.8703 107.073 99.7361 101.801 101.864 95.4858C102.248 94.3623 102.793 91.8824 102.93 90.6267C103.449 86.0561 102.621 80.4855 100.725 75.6643C97.8539 68.3734 92.6905 62.9441 84.3937 58.4962C82.0266 57.2217 80.2314 56.3893 76.2529 54.7056C69.1878 51.7324 66.9595 50.5247 65.6808 49.0248C65.1627 48.4077 64.4581 47.2074 64.0619 46.2553C63.0101 43.7213 63.7952 41.5738 66.0961 40.6455C66.3782 40.5321 70.7787 39.353 75.8821 38.0139C80.9879 36.6836 88.0941 34.8078 91.679 33.8567L98.1881 32.1221L93.9928 16.5401L89.7904 0.96954L66.5631 7.18385C53.794 10.6053 40.402 14.222 36.8196 15.2197Z" fill="url(#paint0_linear_1076_95381)"/>
<path d="M35.6863 14.5357C26.7477 17.039 25.3591 17.5094 23.0394 18.7998C16.3317 22.5445 11.9504 30.0526 11.4631 38.622C11.2716 42.165 11.7533 45.321 13.0205 48.7288C16.1068 56.98 21.543 63.6869 29.9623 69.6337C32.5838 71.4886 34.2649 72.5134 40.4758 76.0916C43.9665 78.1069 47.4162 80.1529 48.1364 80.6385C51.9031 83.1701 53.4317 85.1308 53.5185 87.5468C53.5671 88.7927 53.033 89.9194 51.9808 90.8013C50.7605 91.8266 52.0788 91.4242 35.7609 95.826C27.6695 98.004 21.0489 99.7976 21.0538 99.816C21.0319 99.8809 29.2412 131.289 29.2785 131.319C29.3857 131.388 73.9893 119.456 77.2108 118.485C81.7989 117.108 84.0034 116.232 87.0289 114.566C94.0846 110.688 98.7689 105.302 100.752 98.791C101.11 97.6327 101.604 95.071 101.718 93.7716C102.153 89.0424 101.251 83.2548 99.3136 78.2267C96.3811 70.6227 91.2312 64.9112 83.0257 60.166C80.6845 58.8066 78.9112 57.9146 74.9838 56.1048C68.0096 52.9082 65.8055 51.6202 64.5277 50.0447C64.0098 49.3966 63.2996 48.1411 62.8957 47.1477C61.8235 44.504 62.5582 42.2909 64.7988 41.3659C65.0734 41.253 69.3681 40.1023 74.3493 38.7971C79.3328 37.5011 86.2686 35.6721 89.7674 34.7445L96.1201 33.0521L91.7544 16.8327L87.3821 0.624849L64.7132 6.68911C52.2513 10.0283 39.1819 13.5597 35.6863 14.5357Z" fill="url(#paint1_linear_1076_95381)"/>
<defs>
<linearGradient id="paint0_linear_1076_95381" x1="72.9699" y1="116.158" x2="45.2972" y2="12.882" gradientUnits="userSpaceOnUse">
<stop stop-color="#4E4E4E"/>
<stop offset="1" stop-color="#18181B"/>
</linearGradient>
<linearGradient id="paint1_linear_1076_95381" x1="14.8944" y1="77.6468" x2="101.828" y2="54.3531" gradientUnits="userSpaceOnUse">
<stop stop-color="#D5D4D0"/>
<stop offset="0.01" stop-color="#D5D4D0"/>
<stop offset="0.31" stop-color="#EEEEEC"/>
</linearGradient>
</defs>
</svg>
