<svg width="1024" height="1024" viewBox="0 0 1024 1024" fill="none" xmlns="http://www.w3.org/2000/svg">
<mask id="mask0_134_12786" style="mask-type:alpha" maskUnits="userSpaceOnUse" x="0" y="0" width="1024" height="1024">
<path d="M0 512C0 90.368 90.368 0 512 0C933.632 0 1024 90.368 1024 512C1024 933.632 933.632 1024 512 1024C90.368 1024 0 933.632 0 512Z" fill="#C4C4C4"/>
</mask>
<g mask="url(#mask0_134_12786)">
<rect width="1024" height="1024" fill="black"/>
<path d="M414.95 289.67C374.868 300.865 368.636 302.949 358.189 308.559C327.98 324.84 307.894 356.848 305.12 393.065C304.016 408.038 305.947 421.33 311.366 435.63C324.568 470.253 348.369 498.192 385.542 522.713C397.116 530.361 404.55 534.571 432.029 549.244C447.472 557.51 462.73 565.907 465.912 567.907C482.552 578.333 489.239 586.505 489.458 596.7C489.587 601.957 487.124 606.752 482.365 610.549C476.845 614.963 482.759 613.172 409.599 632.899C373.322 642.661 343.638 650.698 343.659 650.775C343.556 651.05 378.011 783.092 378.175 783.214C378.649 783.5 578.62 730.001 593.07 725.674C613.651 719.539 623.554 715.687 637.178 708.439C668.95 691.574 690.24 668.505 699.549 640.873C701.23 635.958 703.614 625.107 704.214 619.613C706.484 599.614 702.863 575.24 694.565 554.145C682.005 522.244 659.412 498.488 623.11 479.026C612.752 473.45 604.897 469.807 587.49 462.44C556.577 449.431 546.827 444.147 541.232 437.584C538.965 434.884 535.882 429.632 534.148 425.466C529.546 414.379 532.981 404.983 543.049 400.921C544.283 400.424 563.538 395.265 585.867 389.406C608.208 383.585 639.301 375.378 654.986 371.216L683.467 363.626L665.11 295.448L646.723 227.319L545.092 254.51C489.221 269.48 430.625 285.305 414.95 289.67Z" fill="url(#paint0_linear_134_12786)"/>
<path d="M409.99 286.678C370.879 297.631 364.804 299.689 354.654 305.335C325.305 321.72 306.134 354.571 304.002 392.067C303.164 407.569 305.272 421.378 310.816 436.289C324.32 472.392 348.106 501.738 384.945 527.758C396.415 535.874 403.771 540.358 430.947 556.014C446.22 564.832 461.314 573.784 464.466 575.909C480.947 586.986 487.635 595.565 488.015 606.136C488.227 611.588 485.89 616.518 481.286 620.376C475.947 624.863 481.715 623.102 410.317 642.362C374.913 651.892 345.944 659.74 345.966 659.82C345.87 660.104 381.79 797.531 381.953 797.659C382.422 797.964 577.584 745.756 591.68 741.506C611.755 735.481 621.401 731.649 634.639 724.357C665.511 707.392 686.007 683.825 694.684 655.335C696.252 650.267 698.413 639.058 698.912 633.373C700.813 612.68 696.868 587.357 688.39 565.356C675.559 532.086 653.026 507.095 617.123 486.332C606.879 480.384 599.12 476.481 581.936 468.562C551.42 454.576 541.776 448.94 536.185 442.047C533.919 439.211 530.812 433.717 529.045 429.371C524.353 417.804 527.568 408.12 537.371 404.073C538.573 403.579 557.364 398.544 579.159 392.833C600.965 387.162 631.312 379.16 646.621 375.101L674.417 367.696L655.315 296.728L636.184 225.811L536.997 252.345C482.47 266.955 425.285 282.407 409.99 286.678Z" fill="url(#paint1_linear_134_12786)"/>
</g>
<defs>
<linearGradient id="paint0_linear_134_12786" x1="573.125" y1="731.325" x2="452.043" y2="279.442" gradientUnits="userSpaceOnUse">
<stop stop-color="#4E4E4E"/>
<stop offset="1" stop-color="#18181B"/>
</linearGradient>
<linearGradient id="paint1_linear_134_12786" x1="319.015" y1="562.819" x2="699.391" y2="460.898" gradientUnits="userSpaceOnUse">
<stop stop-color="#D5D4D0"/>
<stop offset="0.01" stop-color="#D5D4D0"/>
<stop offset="0.31" stop-color="#EEEEEC"/>
</linearGradient>
</defs>
</svg>
